<?xml version="1.0" encoding="utf-8"?>
<!-- Generator: Adobe Illustrator 16.0.0, SVG Export Plug-In . SVG Version: 6.00 Build 0)  -->
<!DOCTYPE svg PUBLIC "-//W3C//DTD SVG 1.1//EN" "http://www.w3.org/Graphics/SVG/1.1/DTD/svg11.dtd">
<svg version="1.1" id="Layer_1" xmlns="http://www.w3.org/2000/svg" xmlns:xlink="http://www.w3.org/1999/xlink" x="0px" y="0px"
	 width="1080px" height="1080px" viewBox="0 0 1080 1080" enable-background="new 0 0 1080 1080" xml:space="preserve">
<path fill="#4F1869" d="M187.207,324h648c11.924,0,21.6-9.655,21.6-21.6s-9.676-21.6-21.6-21.6h-648c-11.923,0-21.6,9.655-21.6,21.6
	S175.262,324,187.207,324z"/>
<path fill="#4F1869" d="M187.207,799.2h648c11.924,0,21.6-9.655,21.6-21.601c0-11.944-9.676-21.6-21.6-21.6h-648
	c-11.923,0-21.6,9.655-21.6,21.6C165.607,789.545,175.262,799.2,187.207,799.2z"/>
<path fill="#4F1869" d="M187.207,561.6h648c11.924,0,21.6-9.654,21.6-21.6c0-11.944-9.676-21.6-21.6-21.6h-648
	c-11.923,0-21.6,9.655-21.6,21.6C165.607,551.945,175.262,561.6,187.207,561.6z"/>
</svg>
