<?xml version="1.0" encoding="utf-8"?>
<!-- Generator: Adobe Illustrator 16.0.0, SVG Export Plug-In . SVG Version: 6.00 Build 0)  -->
<!DOCTYPE svg PUBLIC "-//W3C//DTD SVG 1.1//EN" "http://www.w3.org/Graphics/SVG/1.1/DTD/svg11.dtd">
<svg version="1.1" id="Layer_1" xmlns="http://www.w3.org/2000/svg" xmlns:xlink="http://www.w3.org/1999/xlink" x="0px" y="0px"
	 width="20px" height="20px" viewBox="0 0 20 20" enable-background="new 0 0 20 20" xml:space="preserve">
<title>instagram [#167]</title>
<desc>Created with Sketch.</desc>
<g id="Page-1">
	<g id="Dribbble-Light-Preview" transform="translate(-340.000000, -7439.000000)">
		<g id="icons" transform="translate(56.000000, 160.000000)">
			<path id="instagram-_x5B__x23_167_x5D_" fill="#4F1869" d="M289.87,7279.123c-1.628,0.074-3.039,0.472-4.178,1.606
				c-1.143,1.141-1.536,2.557-1.61,4.168c-0.046,1.005-0.313,8.602,0.463,10.594c0.523,1.344,1.554,2.377,2.91,2.902
				c0.633,0.246,1.355,0.413,2.415,0.461c8.861,0.401,12.146,0.184,13.531-3.363c0.246-0.631,0.414-1.354,0.461-2.41
				c0.405-8.883-0.064-10.809-1.609-12.352C301.027,7279.507,299.586,7278.675,289.87,7279.123 M289.951,7297.067
				c-0.97-0.044-1.497-0.206-1.848-0.341c-0.884-0.344-1.547-1.005-1.889-1.883c-0.591-1.514-0.395-8.704-0.342-9.867
				c0.052-1.14,0.283-2.181,1.086-2.985c0.995-0.993,2.281-1.479,11.034-1.084c1.142,0.052,2.187,0.282,2.992,1.084
				c0.995,0.993,1.488,2.288,1.087,11.008c-0.045,0.968-0.207,1.492-0.343,1.844C300.829,7297.15,298.758,7297.472,289.951,7297.067
				 M298.09,7283.689c0,0.657,0.534,1.191,1.193,1.191c0.66,0,1.195-0.534,1.195-1.191c0-0.657-0.535-1.191-1.195-1.191
				C298.624,7282.499,298.09,7283.033,298.09,7283.689 M288.863,7288.988c0,2.815,2.288,5.097,5.109,5.097s5.11-2.282,5.11-5.097
				s-2.288-5.096-5.11-5.096S288.863,7286.173,288.863,7288.988 M290.656,7288.988c0-1.826,1.484-3.308,3.316-3.308
				c1.833,0,3.317,1.482,3.317,3.308c0,1.828-1.484,3.309-3.317,3.309C292.14,7292.297,290.656,7290.815,290.656,7288.988"/>
		</g>
	</g>
</g>
</svg>
