<?xml version="1.0" encoding="utf-8"?>
<!-- Generator: Adobe Illustrator 16.0.0, SVG Export Plug-In . SVG Version: 6.00 Build 0)  -->
<!DOCTYPE svg PUBLIC "-//W3C//DTD SVG 1.1//EN" "http://www.w3.org/Graphics/SVG/1.1/DTD/svg11.dtd">
<svg version="1.1" id="Layer_1" xmlns="http://www.w3.org/2000/svg" xmlns:xlink="http://www.w3.org/1999/xlink" x="0px" y="0px"
	 width="20px" height="16px" viewBox="0 0 20 16" enable-background="new 0 0 20 16" xml:space="preserve">
<title>twitter [#154]</title>
<desc>Created with Sketch.</desc>
<g id="Page-1">
	<g id="Dribbble-Light-Preview" transform="translate(-60.000000, -7521.000000)">
		<g id="icons" transform="translate(56.000000, 160.000000)">
			<path id="twitter-_x5B__x23_154_x5D_" fill="#4F1869" d="M10.29,7377c7.547,0,11.675-6.156,11.675-11.495
				c0-0.175,0-0.35-0.012-0.522c0.803-0.571,1.496-1.28,2.047-2.091c-0.748,0.327-1.543,0.542-2.355,0.636
				c0.855-0.505,1.496-1.298,1.804-2.235c-0.806,0.471-1.687,0.803-2.606,0.981c-1.554-1.626-4.152-1.706-5.806-0.175
				c-1.065,0.986-1.518,2.457-1.187,3.86c-3.299-0.164-6.373-1.697-8.457-4.221c-1.089,1.846-0.532,4.207,1.271,5.392
				c-0.653-0.019-1.292-0.192-1.863-0.505v0.051c0.001,1.923,1.378,3.579,3.292,3.959c-0.604,0.163-1.238,0.187-1.852,0.069
				c0.537,1.646,2.078,2.773,3.833,2.806c-1.453,1.124-3.248,1.735-5.096,1.733c-0.326-0.002-0.652-0.02-0.977-0.059
				c1.877,1.186,4.06,1.814,6.29,1.812"/>
		</g>
	</g>
</g>
</svg>
