<?xml version="1.0" encoding="utf-8"?>
<!-- Generator: Adobe Illustrator 16.0.0, SVG Export Plug-In . SVG Version: 6.00 Build 0)  -->
<!DOCTYPE svg PUBLIC "-//W3C//DTD SVG 1.1//EN" "http://www.w3.org/Graphics/SVG/1.1/DTD/svg11.dtd">
<svg version="1.1" id="Layer_1" xmlns="http://www.w3.org/2000/svg" xmlns:xlink="http://www.w3.org/1999/xlink" x="0px" y="0px"
	 width="20px" height="14px" viewBox="0 0 20 14" enable-background="new 0 0 20 14" xml:space="preserve">
<title>youtube [#168]</title>
<desc>Created with Sketch.</desc>
<g id="Page-1">
	<g id="Dribbble-Light-Preview" transform="translate(-300.000000, -7442.000000)">
		<g id="icons" transform="translate(56.000000, 160.000000)">
			<path id="youtube-_x5B__x23_168_x5D_" fill="#4F1869" d="M251.988,7291.586v-5.612c1.992,0.938,3.535,1.843,5.36,2.819
				C255.844,7289.629,253.98,7290.564,251.988,7291.586 M263.091,7283.183c-0.343-0.453-0.929-0.805-1.553-0.922
				c-1.833-0.348-13.267-0.349-15.099,0c-0.5,0.094-0.945,0.32-1.328,0.672c-1.612,1.496-1.106,9.518-0.718,10.817
				c0.164,0.563,0.375,0.968,0.641,1.234c0.343,0.353,0.812,0.595,1.351,0.703c1.509,0.313,9.284,0.487,15.122,0.047
				c0.538-0.094,1.014-0.344,1.39-0.711C264.386,7293.535,264.284,7285.062,263.091,7283.183"/>
		</g>
	</g>
</g>
</svg>
